<?xml version="1.0" encoding="utf-8"?>
<svg id="master-artboard" viewBox="0 0 1097.480224609375 980" version="1.1" xmlns="http://www.w3.org/2000/svg" x="0px" y="0px" style="enable-background:new 0 0 336 235.2;" width="1097.480224609375px" height="980px"><rect id="ee-background" x="0" y="0" width="1097.480224609375" height="980" style="fill: white; fill-opacity: 0; pointer-events: none;"/><g transform="matrix(2.0900423526763916, 0, 0, 2.0900423526763916, -40.568992614746094, -0.000002750892235781066)"><g>
	
	<g transform="matrix(1.559333488477973, 0, 0, 1.559333488477973, -150.36613490954792, -19.51163543481716)">
		<path class="st1" d="M218.83,111.11h-60.55c-2.36,0-4.27,1.91-4.27,4.27v50.12c3.28-0.76,6.9-1.66,10.9-2.7&#10;&#9;&#9;&#9;c2.72-0.71,5.62-1.49,8.69-2.35c2.55-0.43,5.29-0.91,8.27-1.49c2.18-0.43,4.49-0.9,6.94-1.43c4.99-1.09,9.26-2.11,13.9-5.21&#10;&#9;&#9;&#9;c9.18-6.1,16.67-18.12,15.82-29.69c-0.33-4.48-1.61-5.02-0.99-8.15C217.8,113.27,218.25,112.15,218.83,111.11" style="fill: rgb(39, 170, 225);"/>
		<path class="st1" d="M229.12,133.48c0.52,1.32,1,2.66,1.64,4.08c0.04,0.09,0.08,0.18,0.12,0.26c0.68,1.48,1.67,3.26,3.53,4.58&#10;&#9;&#9;&#9;c1.88,1.26,4.11,1.61,6.09,1.41c2-0.24,3.79-0.95,5.42-2.01c1.61-1.08,3.04-2.7,3.85-4.45c0.82-1.74,1.22-3.51,1.43-5.16&#10;&#9;&#9;&#9;c0.2-1.66,0.29-3.22,0.32-4.81c0.03-1.59-0.02-3.17-0.11-4.73c-0.26-3.92-0.88-7.79-1.88-11.55c-0.61-2.25-1.35-4.48-2.24-6.64&#10;&#9;&#9;&#9;c0.08,2.24,0.15,4.45,0.18,6.64c0.07,3.9,0.03,7.74-0.23,11.55c-0.2,2.95-0.5,5.99-1.01,8.75c-0.26,1.37-0.61,2.6-1.14,3.61&#10;&#9;&#9;&#9;c-0.51,1.01-1.19,1.75-2.12,2.36c-0.91,0.64-2.05,1.08-3.09,1.21c-1.04,0.17-2-0.02-2.72-0.42c-0.69-0.38-1.41-1.29-2.11-2.51&#10;&#9;&#9;&#9;c-0.69-1.2-1.38-2.6-2.13-3.96c-0.66-1.22-1.38-2.41-2.15-3.55c-2.77-4.12-6.24-7.72-10.23-10.5&#10;&#9;&#9;&#9;C224.06,122.78,227.04,127.96,229.12,133.48" style="fill: rgb(39, 170, 225);"/>
		<path class="st1" d="M265.1,97.55c2.12,0.78,6.01,2.25,9.59,5.81c2.85,2.84,3.88,5.39,4.94,7.74c0.52,1.15,1.05,2.26,1.81,3.33&#10;&#9;&#9;&#9;c2.6,3.66,8.37,7.57,22.66,7.39c0.35,6.15-0.36,13.83-4.14,21.39c-2.14,4.26-4.25,8.49-8.4,9.63c-4.42,1.22-6.79-2.24-13.29-2.03&#10;&#9;&#9;&#9;c-5.42,0.19-9.39,2.77-10.71,3.62c-6.72,4.41-8.89,11.94-11.01,19.92c-4.12,15.44-5.13,21.26-6.06,25.68&#10;&#9;&#9;&#9;c-0.54,2.59-1.06,4.69-2.16,7.96c-2.36,7.01-5.21,12.9-8.16,17.65c-2.66,4.3-10.17,12.34-14.27,16.29&#10;&#9;&#9;&#9;c3.46,2.34,6.96,4.59,10.51,6.75c12.32,7.51,24.98,13.84,37.7,18.84c-1.46-2.61-2.82-4.75-4.02-8.47&#10;&#9;&#9;&#9;c-0.17-0.52-0.34-1.07-0.5-1.66c-1.84-6.67-1.8-12.77-1.37-17.18c0.23-2.38,0.58-4.26,0.81-5.48c1.21-6.37,3.39-11.35,5.11-14.64&#10;&#9;&#9;&#9;c-0.16-2.97-0.33-5.93-0.5-8.9c-1.18-1.26-2.8-2.78-4.92-4.26c-2.47-1.72-3.43-1.85-4.4-3.31c-0.78-1.15-1.09-2.43-1.2-3.6&#10;&#9;&#9;&#9;c-0.09-1.12,0-2.13,0.06-2.83c0.18-1.91,0.74-3.42,1.18-4.36c1.69-0.67,3.38-1.34,5.08-2.01c0.2-1.4,0.71-3.26,2.02-5&#10;&#9;&#9;&#9;c4.24-5.65,12.7-4.37,13.05-4.32c0.59-3.11,1.16-6.22,1.74-9.33c1.22,2.02,2.43,4.05,3.65,6.07c1.59-2.41,3.18-4.82,4.76-7.23&#10;&#9;&#9;&#9;c0.32,1.77,0.93,4.41,2.08,7.48c1.49,4.04,2.7,5.49,4,8.45c2.3,5.19,2.62,9.79,2.85,13.08v0.02c0.55,7.85-1.45,8.82-0.38,15.09&#10;&#9;&#9;&#9;c0.09,0.49,0.21,1.14,0.37,1.9c0.49,2.27,1.48,5.53,3.68,8.52c3.45,4.7,7.47,5.44,12.43,7.57v-33.1h81.02&#10;&#9;&#9;&#9;c1.42,0,2.67-0.69,3.44-1.76c-0.12-0.5-0.25-1.01-0.38-1.51c-1.76-6.88-4.16-13.94-7.34-21.59c-1.38-3.31-2.95-6.78-4.8-10.58&#10;&#9;&#9;&#9;c-1.43-2.93-3.16-6.15-5.43-10.11c-1.72-2.95-3.72-6.19-6.11-9.81c-2.53-3.76-4.69-6.8-6.77-9.57&#10;&#9;&#9;&#9;c-6.24-8.33-13.15-16.35-20.64-23.99h-33V82.73V67.15V46.76v-2.23v-5.9c0-2.36-1.91-4.27-4.27-4.27h-3.48h-1.03h-75.88&#10;&#9;&#9;&#9;c-2.36,0-4.27,1.91-4.27,4.27v63.2c2.54-1.14,4.99-2.02,6.92-2.7C242.88,97.28,253.74,93.41,265.1,97.55" style="fill: rgb(39, 170, 225);"/>
		<path class="st1" d="M443.07,216.5c-0.2-9.69-1.49-19.2-3.51-28.45c-2.01-9.26-4.79-18.25-8.06-26.98&#10;&#9;&#9;&#9;c-1.63-4.36-3.4-8.65-5.35-12.96c-1.94-4.29-4.06-8.47-6.27-12.6c-2.23-4.11-4.59-8.14-7.03-12.11c-2.48-3.94-5.03-7.83-7.7-11.62&#10;&#9;&#9;&#9;c-10.68-15.18-22.85-29.17-36.19-41.96c-11.05-10.55-22.89-20.32-35.55-29.07v36.23c5.6,4.29,11.04,8.82,16.3,13.54&#10;&#9;&#9;&#9;c7.2,6.49,14.06,13.36,20.5,20.59c4.69,5.25,9.14,10.69,13.35,16.29c2.5,3.33,4.88,6.74,7.2,10.18c2.28,3.47,4.48,6.97,6.56,10.54&#10;&#9;&#9;&#9;c1.09,1.91,2.18,3.84,3.21,5.78c0.9,1.68,1.78,3.38,2.61,5.09c1.79,3.66,3.53,7.45,5.12,11.27c3.18,7.65,5.9,15.44,7.91,23.32&#10;&#9;&#9;&#9;c2.03,7.88,3.39,15.86,3.84,23.77c0.45,7.91-0.03,15.74-1.64,23.22c-1.61,7.47-4.4,14.55-8.41,20.84&#10;&#9;&#9;&#9;c-3.99,6.31-9.23,11.8-15.38,16.3c-6.17,4.47-13.23,7.96-20.78,10.44c-15.13,4.95-32.04,6.17-48.61,4.86&#10;&#9;&#9;&#9;c-16.65-1.37-33.26-5.32-49.27-11.09c-4.37-1.57-8.7-3.28-12.99-5.12c-11.42-4.88-22.52-10.66-33.2-17.16&#10;&#9;&#9;&#9;c-0.67-0.41-1.34-0.82-2.01-1.24c-13.94-8.66-27.15-18.56-39.41-29.55c-12.83-11.52-24.63-24.23-34.95-38.07&#10;&#9;&#9;&#9;c-10.31-13.82-19.17-28.8-25.78-44.72c-3.27-7.97-5.99-16.15-7.9-24.54c-1.9-8.37-3.01-16.92-3.05-25.49&#10;&#9;&#9;&#9;c-0.04-8.56,1.02-17.13,3.41-25.34c2.38-8.2,6.12-16.03,11.2-22.94c2.54-3.45,5.38-6.68,8.5-9.64c3.13-2.95,6.53-5.63,10.13-8.02&#10;&#9;&#9;&#9;c7.2-4.78,15.25-8.32,23.6-10.78c8.37-2.48,17.07-3.86,25.82-4.4c8.76-0.56,17.58-0.27,26.33,0.67&#10;&#9;&#9;&#9;c-8.72-1.26-17.54-1.89-26.37-1.64c-8.83,0.23-17.67,1.31-26.29,3.51c-8.6,2.21-16.99,5.52-24.63,10.21&#10;&#9;&#9;&#9;c-3.82,2.34-7.47,4.99-10.86,7.96c-3.38,2.97-6.49,6.27-9.3,9.8c-5.61,7.09-9.9,15.24-12.73,23.84&#10;&#9;&#9;&#9;c-2.84,8.61-4.29,17.65-4.58,26.69c-0.29,9.04,0.55,18.09,2.23,26.95c1.68,8.86,4.21,17.54,7.32,25.97&#10;&#9;&#9;&#9;c6.29,16.85,14.93,32.75,25.13,47.52c10.21,14.78,21.99,28.44,34.91,40.92c12.93,12.47,27.01,23.77,42.06,33.71&#10;&#9;&#9;&#9;c2.72,1.79,5.46,3.54,8.25,5.25v0.54h0.88c12.34,7.5,25.29,14.08,38.79,19.51c16.86,6.78,34.63,11.75,53.04,13.93&#10;&#9;&#9;&#9;c9.21,1.08,18.54,1.43,27.9,0.92c9.37-0.53,18.82-1.95,28.1-4.63c9.26-2.67,18.37-6.68,26.67-12.25&#10;&#9;&#9;&#9;c8.27-5.58,15.69-12.76,21.43-21.14c5.78-8.35,9.86-17.79,12.32-27.42C442.35,236.04,443.27,226.17,443.07,216.5" style="fill: rgb(39, 170, 225);"/>
	<path d="M 408.47149658203125 137.58543395996094 L 408.47149658203125 137.58543395996094" style="fill: rgb(39, 170, 225); fill-opacity: 1; stroke: rgb(0, 0, 0); stroke-opacity: 1; stroke-width: 0; paint-order: fill;"/><path d="M 349.7478332519531 374.5527038574219" style="fill: rgb(39, 170, 225); fill-opacity: 1; stroke: rgb(0, 0, 0); stroke-opacity: 1; stroke-width: 0; paint-order: fill;"/></g>
</g></g></svg>