<?xml version="1.0" encoding="utf-8"?>
<svg id="master-artboard" viewBox="0 0 793.8814697265625 768.3013916015625" version="1.1" xmlns="http://www.w3.org/2000/svg" x="0px" y="0px" style="enable-background:new 0 0 336 235.2;" width="793.8814697265625px" height="768.3013916015625px"><rect id="ee-background" x="0" y="0" width="793.8814697265625" height="768.3013916015625" style="fill: white; fill-opacity: 0; pointer-events: none;"/><g transform="matrix(2.0900423526763916, 0, 0, 2.0900423526763916, -181.70136260986328, -67.2840451092909)"><g>
	
	<g transform="matrix(1.559333488477973, 0, 0, 1.559333488477973, -150.36613490954792, -19.51163543481716)">
		
		<path class="st1" d="M229.12,133.48c0.52,1.32,1,2.66,1.64,4.08c0.04,0.09,0.08,0.18,0.12,0.26c0.68,1.48,1.67,3.26,3.53,4.58&#10;&#9;&#9;&#9;c1.88,1.26,4.11,1.61,6.09,1.41c2-0.24,3.79-0.95,5.42-2.01c1.61-1.08,3.04-2.7,3.85-4.45c0.82-1.74,1.22-3.51,1.43-5.16&#10;&#9;&#9;&#9;c0.2-1.66,0.29-3.22,0.32-4.81c0.03-1.59-0.02-3.17-0.11-4.73c-0.26-3.92-0.88-7.79-1.88-11.55c-0.61-2.25-1.35-4.48-2.24-6.64&#10;&#9;&#9;&#9;c0.08,2.24,0.15,4.45,0.18,6.64c0.07,3.9,0.03,7.74-0.23,11.55c-0.2,2.95-0.5,5.99-1.01,8.75c-0.26,1.37-0.61,2.6-1.14,3.61&#10;&#9;&#9;&#9;c-0.51,1.01-1.19,1.75-2.12,2.36c-0.91,0.64-2.05,1.08-3.09,1.21c-1.04,0.17-2-0.02-2.72-0.42c-0.69-0.38-1.41-1.29-2.11-2.51&#10;&#9;&#9;&#9;c-0.69-1.2-1.38-2.6-2.13-3.96c-0.66-1.22-1.38-2.41-2.15-3.55c-2.77-4.12-6.24-7.72-10.23-10.5&#10;&#9;&#9;&#9;C224.06,122.78,227.04,127.96,229.12,133.48" style="fill: rgb(255, 255, 255);"/>
		<path class="st1" d="M 265.1 97.55 C 267.22 98.33 271.11 99.8 274.69 103.36 C 277.54 106.2 278.57 108.75 279.63 111.1 C 280.15 112.25 280.68 113.36 281.44 114.42999999999999 C 284.04 118.08999999999999 289.81 122 304.1 121.82 C 304.45000000000005 127.97 303.74 135.65 299.96000000000004 143.20999999999998 C 297.82000000000005 147.46999999999997 295.71000000000004 151.7 291.56000000000006 152.83999999999997 C 287.14000000000004 154.05999999999997 284.77000000000004 150.59999999999997 278.27000000000004 150.80999999999997 C 272.85 150.99999999999997 268.88000000000005 153.57999999999998 267.56000000000006 154.42999999999998 C 260.84000000000003 158.83999999999997 258.6700000000001 166.36999999999998 256.55000000000007 174.34999999999997 C 252.43000000000006 189.78999999999996 251.42000000000007 195.60999999999996 250.49000000000007 200.02999999999997 C 249.95000000000007 202.61999999999998 249.43000000000006 204.71999999999997 248.33000000000007 207.98999999999998 C 245.97000000000006 214.99999999999997 243.12000000000006 220.89 240.17000000000007 225.64 C 237.51000000000008 229.94 230.00000000000009 237.98 225.90000000000006 241.92999999999998 C 229.36000000000007 244.26999999999998 232.86000000000007 246.51999999999998 236.41000000000005 248.67999999999998 C 248.73000000000005 256.19 261.39000000000004 262.52 274.11000000000007 267.52 C 272.6500000000001 264.90999999999997 271.2900000000001 262.77 270.0900000000001 259.04999999999995 C 269.9200000000001 258.53 269.7500000000001 257.97999999999996 269.5900000000001 257.38999999999993 C 267.7500000000001 250.71999999999994 267.7900000000001 244.61999999999992 268.2200000000001 240.20999999999992 C 268.4500000000001 237.82999999999993 268.80000000000007 235.94999999999993 269.0300000000001 234.72999999999993 C 270.24000000000007 228.35999999999993 272.4200000000001 223.37999999999994 274.1400000000001 220.08999999999992 C 273.9800000000001 217.11999999999992 273.8100000000001 214.1599999999999 273.6400000000001 211.1899999999999 C 272.4600000000001 209.92999999999992 270.8400000000001 208.4099999999999 268.7200000000001 206.92999999999992 C 266.25000000000006 205.20999999999992 265.2900000000001 205.07999999999993 264.3200000000001 203.61999999999992 C 263.54000000000013 202.4699999999999 263.23000000000013 201.1899999999999 263.1200000000001 200.01999999999992 C 263.03000000000014 198.89999999999992 263.1200000000001 197.88999999999993 263.1800000000001 197.1899999999999 C 263.3600000000001 195.27999999999992 263.92000000000013 193.76999999999992 264.3600000000001 192.8299999999999 C 266.0500000000001 192.1599999999999 267.7400000000001 191.4899999999999 269.4400000000001 190.8199999999999 C 269.6400000000001 189.4199999999999 270.1500000000001 187.55999999999992 271.4600000000001 185.8199999999999 C 275.7000000000001 180.1699999999999 284.1600000000001 181.4499999999999 284.5100000000001 181.49999999999991 C 285.1000000000001 178.3899999999999 285.67000000000013 175.27999999999992 286.2500000000001 172.1699999999999 C 287.47000000000014 174.1899999999999 288.6800000000001 176.2199999999999 289.9000000000001 178.2399999999999 C 291.49000000000007 175.8299999999999 293.0800000000001 173.4199999999999 294.6600000000001 171.0099999999999 C 294.9800000000001 172.77999999999992 295.5900000000001 175.4199999999999 296.74000000000007 178.4899999999999 C 298.2300000000001 182.5299999999999 299.44000000000005 183.9799999999999 300.74000000000007 186.93999999999988 C 303.0400000000001 192.12999999999988 303.36000000000007 196.72999999999988 303.5900000000001 200.0199999999999 L 303.5900000000001 200.0399999999999 C 304.1400000000001 207.8899999999999 302.1400000000001 208.8599999999999 303.2100000000001 215.1299999999999 C 303.30000000000007 215.61999999999992 303.4200000000001 216.2699999999999 303.5800000000001 217.02999999999992 C 304.0700000000001 219.29999999999993 305.0600000000001 222.55999999999992 307.2600000000001 225.54999999999993 C 310.7100000000001 230.24999999999991 314.73000000000013 230.98999999999992 319.6900000000001 233.11999999999992 L 320.2018103027345 197.97278930664055 C 320.2018103027345 197.97278930664055 320.7334289593951 195.45009612151523 322.3870849609375 195.45103454589844 C 389.0166931152344 195.4888458251953 388.54754638671875 195.4740447998047 388.54754638671875 195.4740447998047 C 392.65771484375 195.4740447998047 394.0286560058594 193.60574340820312 394.05012084960947 190.09823608398432 C 394.52341197725065 112.7177166430777 393.962646484375 195.70491790771484 393.90185913085946 116.50715270996085 C 393.89993903383146 114.0104493485431 392.5261535644531 111.72518920898438 388.5995251464845 111.72890624999992 C 330.676851574538 111.78371310394871 319.6800000000001 111.09999999999992 319.6800000000001 111.09999999999992 L 319.6800000000001 82.73 L 319.6800000000001 67.15 L 319.6800000000001 46.76 L 319.6800000000001 44.53 L 319.6800000000001 38.63 C 319.6800000000001 36.27 317.7700000000001 34.36 315.41000000000014 34.36 L 311.9300000000001 34.36 L 310.90000000000015 34.36 L 235.02000000000015 34.36 C 232.66000000000014 34.36 230.75000000000014 36.269999999999996 230.75000000000014 38.629999999999995 L 230.75000000000014 101.83 C 233.29000000000013 100.69 235.74000000000015 99.81 237.67000000000013 99.13 C 242.88 97.28 253.74 93.41 265.1 97.55" style="fill: rgb(255, 255, 255);"/>
		
	<path d="M 408.47149658203125 137.58543395996094 L 408.47149658203125 137.58543395996094" style="fill: rgb(39, 170, 225); fill-opacity: 1; stroke: rgb(0, 0, 0); stroke-opacity: 1; stroke-width: 0; paint-order: fill;"/><path d="M 349.7478332519531 374.5527038574219" style="fill: rgb(39, 170, 225); fill-opacity: 1; stroke: rgb(0, 0, 0); stroke-opacity: 1; stroke-width: 0; paint-order: fill;"/><path style="fill: rgb(39, 170, 225); fill-opacity: 1; stroke: rgb(0, 0, 0); stroke-opacity: 1; stroke-width: 0; paint-order: fill;"/><path style="fill: rgb(39, 170, 225); fill-opacity: 1; stroke: rgb(0, 0, 0); stroke-opacity: 1; stroke-width: 0; paint-order: fill;"/><path style="fill: rgb(39, 170, 225); fill-opacity: 1; stroke: rgb(0, 0, 0); stroke-opacity: 1; stroke-width: 0; paint-order: fill;"/><path style="fill: rgb(39, 170, 225); fill-opacity: 1; stroke: rgb(0, 0, 0); stroke-opacity: 1; stroke-width: 0; paint-order: fill;"/><path style="fill: rgb(39, 170, 225); fill-opacity: 1; stroke: rgb(0, 0, 0); stroke-opacity: 1; stroke-width: 0; paint-order: fill;"/><path style="fill: rgb(39, 170, 225); fill-opacity: 1; stroke: rgb(0, 0, 0); stroke-opacity: 1; stroke-width: 0; paint-order: fill;"/><path style="fill: rgb(39, 170, 225); fill-opacity: 1; stroke: rgb(0, 0, 0); stroke-opacity: 1; stroke-width: 0; paint-order: fill;"/><path style="fill: rgb(39, 170, 225); fill-opacity: 1; stroke: rgb(0, 0, 0); stroke-opacity: 1; stroke-width: 0; paint-order: fill;"/><path style="fill: rgb(39, 170, 225); fill-opacity: 1; stroke: rgb(0, 0, 0); stroke-opacity: 1; stroke-width: 0; paint-order: fill;"/><path style="fill: rgb(39, 170, 225); fill-opacity: 1; stroke: rgb(0, 0, 0); stroke-opacity: 1; stroke-width: 0; paint-order: fill;"/><path style="fill: rgb(39, 170, 225); fill-opacity: 1; stroke: rgb(0, 0, 0); stroke-opacity: 1; stroke-width: 0; paint-order: fill;"/><path style="fill: rgb(39, 170, 225); fill-opacity: 1; stroke: rgb(0, 0, 0); stroke-opacity: 1; stroke-width: 0; paint-order: fill;"/><path style="fill: rgb(39, 170, 225); fill-opacity: 1; stroke: rgb(0, 0, 0); stroke-opacity: 1; stroke-width: 0; paint-order: fill;"/><path d="M 465.0778503417969 177.82257080078125" style="fill: rgb(39, 170, 225); fill-opacity: 1; stroke: rgb(0, 0, 0); stroke-opacity: 1; stroke-width: 0; paint-order: fill;"/><path d="M 595.3662109375 147.1782989501953" style="fill: rgb(39, 170, 225); fill-opacity: 1; stroke: rgb(0, 0, 0); stroke-opacity: 1; stroke-width: 0; paint-order: fill;"/><path class="st1" d="M218.83,111.11h-60.55c-2.36,0-4.27,1.91-4.27,4.27v50.12c3.28-0.76,6.9-1.66,10.9-2.7&#10;&#9;&#9;&#9;c2.72-0.71,5.62-1.49,8.69-2.35c2.55-0.43,5.29-0.91,8.27-1.49c2.18-0.43,4.49-0.9,6.94-1.43c4.99-1.09,9.26-2.11,13.9-5.21&#10;&#9;&#9;&#9;c9.18-6.1,16.67-18.12,15.82-29.69c-0.33-4.48-1.61-5.02-0.99-8.15C217.8,113.27,218.25,112.15,218.83,111.11" style="fill: rgb(255, 255, 255);"/><path d="M 196.05885314941406 133.5827178955078 L 196.05885314941406 133.5827178955078" style="fill: rgb(255, 255, 255); fill-opacity: 1; stroke: rgb(0, 0, 0); stroke-opacity: 1; stroke-width: 0; paint-order: fill;"/></g>
</g></g></svg>