<?xml version="1.0" standalone="no"?>
<!DOCTYPE svg PUBLIC "-//W3C//DTD SVG 20010904//EN"
 "http://www.w3.org/TR/2001/REC-SVG-20010904/DTD/svg10.dtd">
<svg version="1.0" xmlns="http://www.w3.org/2000/svg"
 width="673.000000pt" height="673.000000pt" viewBox="0 0 673.000000 673.000000"
 preserveAspectRatio="xMidYMid meet">
<metadata>
Created by potrace 1.11, written by Peter Selinger 2001-2013
</metadata>
<g transform="translate(0.000000,673.000000) scale(0.100000,-0.100000)"
fill="#000000" stroke="none">
<path d="M1867 6364 c-2 -2 -46 -6 -98 -9 -105 -6 -189 -13 -234 -20 -16 -3
-46 -7 -65 -9 -78 -10 -316 -78 -422 -121 -333 -136 -578 -344 -766 -648 -23
-38 -42 -73 -42 -78 0 -5 -8 -22 -17 -36 -45 -68 -130 -347 -149 -488 -2 -16
-7 -48 -10 -70 -6 -43 -16 -204 -16 -245 0 -48 12 -225 17 -261 2 -20 7 -56 9
-80 15 -135 94 -442 156 -609 17 -47 33 -89 34 -95 11 -39 86 -206 153 -340
236 -469 527 -867 933 -1276 263 -265 414 -396 690 -601 103 -76 383 -266 435
-294 11 -6 65 -37 120 -69 113 -65 392 -206 505 -255 41 -18 89 -38 105 -45
233 -102 716 -243 930 -271 17 -2 62 -8 100 -14 173 -24 251 -30 470 -31 334
-2 655 54 915 160 41 17 81 31 88 31 6 0 12 5 12 10 0 6 7 10 15 10 24 0 204
108 302 181 261 195 455 463 563 777 34 102 78 281 86 352 2 25 8 79 13 120
14 120 5 460 -15 570 -2 14 -9 55 -14 91 -5 36 -12 72 -14 80 -3 8 -7 30 -10
50 -10 70 -75 307 -124 449 -151 445 -366 846 -676 1260 -263 352 -644 745
-1006 1036 -113 92 -305 233 -321 236 -12 3 -14 -56 -15 -362 l-1 -365 63 -49
c202 -154 564 -500 735 -702 370 -437 620 -861 783 -1332 37 -106 83 -269 91
-319 3 -15 12 -59 20 -98 9 -38 18 -92 21 -120 3 -27 7 -63 10 -80 9 -56 11
-320 3 -385 -15 -123 -19 -145 -41 -230 -98 -387 -349 -673 -740 -845 -75 -33
-278 -97 -343 -108 -226 -39 -333 -49 -515 -49 -106 0 -331 11 -340 17 -4 3
-38 7 -76 11 -38 3 -71 7 -74 9 -3 2 -26 6 -50 10 -76 11 -270 54 -365 81
-139 39 -339 105 -349 115 -6 5 -16 9 -24 9 -22 0 -272 106 -427 181 -211 102
-583 316 -593 341 -2 4 -8 8 -14 8 -12 0 -210 138 -328 229 -769 591 -1344
1338 -1613 2096 -43 121 -99 316 -92 323 3 3 1 10 -4 16 -5 6 -19 70 -31 141
-24 142 -35 459 -19 570 4 33 11 78 14 100 19 139 74 305 151 456 197 386 559
659 1035 779 107 26 322 64 345 59 5 -1 11 0 14 1 18 8 267 13 408 8 52 -2 95
-1 98 3 5 8 -92 19 -226 25 -58 3 -117 6 -132 8 -15 2 -29 2 -31 0z"/>
<path d="M2507 5942 c-62 -30 -59 0 -59 -702 0 -353 2 -643 4 -646 3 -2 52 13
110 35 93 34 153 53 183 57 6 0 19 5 30 10 11 5 79 8 150 8 113 -1 140 -4 203
-27 139 -49 224 -122 288 -249 20 -40 46 -86 57 -102 55 -78 227 -138 394
-137 l51 0 -3 -97 c-8 -222 -133 -482 -246 -512 -29 -8 -52 -5 -119 15 -95 28
-156 33 -220 15 -54 -15 -133 -54 -177 -88 -43 -32 -106 -127 -133 -200 -32
-85 -105 -362 -151 -577 -48 -220 -83 -330 -149 -470 -66 -139 -130 -228 -260
-366 l-111 -119 113 -73 c152 -99 303 -186 472 -270 153 -76 360 -167 381
-167 8 0 -1 27 -26 76 -21 42 -38 80 -37 83 1 3 -3 17 -9 31 -13 32 -31 139
-36 210 -9 139 31 346 92 484 30 65 30 71 22 232 -1 17 -60 73 -116 109 -27
18 -59 42 -69 54 -24 26 -32 110 -17 167 9 35 17 43 63 65 43 20 54 30 65 64
18 52 66 101 120 121 46 18 63 21 130 23 l41 1 12 73 c7 39 15 76 17 81 3 4
19 -15 35 -43 16 -28 33 -51 36 -51 4 0 24 27 46 60 21 33 41 60 45 60 3 0 12
-24 19 -52 7 -29 37 -105 67 -168 52 -110 81 -200 85 -265 3 -35 2 -160 -1
-290 -4 -162 56 -298 160 -364 52 -33 172 -84 179 -76 3 3 6 152 6 331 l1 326
822 1 822 2 22 21 21 22 -41 137 c-84 277 -229 597 -380 835 -40 63 -78 124
-84 134 -7 11 -17 27 -24 35 -7 9 -52 70 -102 136 -83 112 -218 272 -344 409
l-54 59 -329 1 -329 1 -1 725 c-1 490 -5 734 -12 752 -6 15 -23 35 -37 44 -24
16 -90 17 -843 18 -656 1 -823 -2 -845 -12z"/>
<path d="M2783 4388 c2 -223 -14 -380 -44 -445 -15 -31 -32 -47 -64 -63 -77
-37 -91 -27 -186 145 -46 84 -210 262 -229 250 -11 -7 -10 -10 30 -70 46 -69
85 -147 125 -245 50 -123 80 -167 127 -191 130 -66 281 19 322 179 17 66 12
280 -8 382 -13 65 -59 210 -67 210 -4 0 -7 -69 -6 -152z"/>
<path d="M984 4412 c-12 -2 -32 -14 -44 -27 l-23 -25 0 -515 c0 -283 3 -518 7
-522 3 -4 58 6 120 21 63 15 120 29 127 30 8 2 21 6 29 9 28 11 134 35 300 67
265 51 370 93 477 190 96 86 202 256 219 349 4 20 10 41 14 46 12 15 4 206 -9
240 -7 16 -9 41 -5 55 4 14 8 30 10 35 1 6 5 18 9 28 5 11 2 17 -6 18 -43 2
-1208 3 -1225 1z"/>
</g>
</svg>
