<?xml version="1.0" standalone="no"?>
<!DOCTYPE svg PUBLIC "-//W3C//DTD SVG 20010904//EN"
 "http://www.w3.org/TR/2001/REC-SVG-20010904/DTD/svg10.dtd">
<svg version="1.0" xmlns="http://www.w3.org/2000/svg"
 width="484.000000pt" height="484.000000pt" viewBox="0 0 484.000000 484.000000"
 preserveAspectRatio="xMidYMid meet">
<metadata>
Created by potrace 1.11, written by Peter Selinger 2001-2013
</metadata>
<g transform="translate(0.000000,484.000000) scale(0.100000,-0.100000)"
fill="#000000" stroke="none">
<path d="M1625 4763 c-11 -3 -31 -17 -45 -31 l-25 -27 -1 -648 c-2 -715 -5
-674 60 -648 93 37 194 72 216 76 14 2 45 8 70 14 118 26 262 14 374 -33 123
-51 185 -112 257 -252 69 -133 124 -171 309 -210 14 -3 58 -7 98 -9 40 -2 76
-6 80 -9 7 -4 6 -70 -2 -146 -6 -46 -7 -50 -20 -109 -12 -50 -78 -200 -101
-228 -5 -6 -21 -28 -35 -47 -44 -61 -99 -76 -182 -51 -101 31 -158 36 -243 21
-50 -9 -181 -82 -209 -118 -11 -14 -29 -37 -39 -50 -34 -42 -98 -199 -102
-248 0 -9 -4 -20 -7 -26 -4 -6 -9 -21 -12 -35 -6 -25 -34 -140 -37 -149 -6
-18 -9 -32 -24 -95 -8 -38 -20 -88 -25 -110 -5 -22 -16 -74 -25 -115 -20 -102
-46 -188 -88 -295 -37 -93 -125 -263 -147 -285 -3 -3 -27 -32 -55 -65 -81 -97
-97 -115 -152 -169 -29 -28 -53 -56 -53 -63 0 -13 82 -73 99 -73 6 0 11 -4 11
-9 0 -5 12 -15 28 -23 15 -7 52 -30 82 -49 30 -20 70 -42 88 -50 17 -8 32 -17
32 -20 0 -4 15 -12 33 -20 17 -7 34 -16 37 -19 10 -12 462 -230 485 -234 6 -1
16 -5 23 -9 21 -14 62 -18 62 -7 0 6 -11 30 -24 53 -28 51 -62 147 -72 202 -4
22 -9 44 -11 48 -3 4 -7 34 -9 65 -3 31 -5 62 -6 67 -1 14 12 147 17 176 13
69 18 88 32 134 19 63 55 157 65 171 5 7 7 58 6 114 l-3 102 -59 54 c-32 30
-64 54 -71 54 -6 0 -26 15 -44 34 -28 29 -33 41 -33 87 -2 95 7 114 63 138 34
15 53 31 61 49 32 80 36 86 83 118 43 30 96 45 160 46 48 1 56 4 60 22 18 82
23 111 19 118 -3 4 -1 8 5 8 6 0 20 -18 31 -40 21 -40 60 -57 60 -25 0 8 5 15
10 15 6 0 10 7 10 15 0 8 4 15 8 15 5 0 15 12 22 28 12 27 13 27 36 -43 13
-38 44 -111 68 -161 24 -49 51 -114 60 -143 17 -57 31 -183 27 -246 -11 -204
-10 -242 10 -310 26 -85 48 -122 107 -180 33 -32 55 -45 144 -84 91 -40 85
-64 83 296 0 175 1 324 3 331 3 9 154 12 708 12 663 0 704 1 705 18 7 87 3
1722 -4 1738 -20 48 -8 47 -729 46 -628 -1 -678 1 -679 16 0 9 -2 339 -2 732
-2 560 -5 720 -15 737 -30 53 -6 51 -882 51 -448 -1 -824 -3 -835 -5z"/>
<path d="M1893 3230 c5 -180 -8 -353 -33 -450 -23 -86 -127 -135 -178 -84 -7
8 -34 51 -59 96 -58 105 -118 183 -190 247 -77 69 -95 68 -48 -1 14 -20 25
-41 25 -47 0 -5 4 -11 8 -13 14 -5 67 -109 107 -208 22 -52 49 -112 62 -132
26 -43 87 -78 141 -81 42 -3 119 23 161 54 40 29 78 104 89 172 9 58 8 232 -2
299 -14 95 -59 253 -78 273 -5 6 -7 -45 -5 -125z"/>
<path d="M94 3222 c-12 -2 -32 -14 -44 -27 l-22 -23 0 -489 c0 -268 1 -505 1
-525 l1 -36 193 50 c105 28 227 56 269 64 62 11 287 58 333 69 15 3 44 15 102
41 175 77 325 259 382 461 21 77 22 212 2 275 -9 29 -9 47 1 80 7 24 12 47 13
52 0 7 -1179 15 -1231 8z"/>
</g>
</svg>
